<?xml version="1.0" standalone="no"?>
<!DOCTYPE svg PUBLIC "-//W3C//DTD SVG 20010904//EN"
 "http://www.w3.org/TR/2001/REC-SVG-20010904/DTD/svg10.dtd">
<svg version="1.0" xmlns="http://www.w3.org/2000/svg"
 width="388.000000pt" height="388.000000pt" viewBox="0 0 388.000000 388.000000"
 preserveAspectRatio="xMidYMid meet">
<metadata>
Created by potrace 1.16, written by Peter Selinger 2001-2019
</metadata>
<g transform="translate(0.000000,388.000000) scale(0.100000,-0.100000)"
fill="#000000" stroke="none">
<path d="M0 1940 l0 -1940 1940 0 1940 0 0 783 -1 782 -29 -112 c-164 -627
-632 -1131 -1240 -1334 -417 -139 -877 -130 -1283 27 -453 174 -815 505 -1027
939 -108 219 -165 412 -189 637 -66 605 178 1231 636 1632 894 784 2270 572
2889 -445 98 -160 164 -319 215 -514 l28 -110 1 798 0 797 -1940 0 -1940 0 0
-1940z"/>
<path d="M1780 3796 c-427 -56 -806 -241 -1106 -540 -403 -404 -600 -954 -544
-1517 105 -1032 1033 -1792 2061 -1689 736 75 1369 580 1602 1280 71 214 82
292 82 600 0 267 -1 279 -28 394 -78 326 -219 604 -432 848 -230 265 -582 482
-935 577 -195 53 -497 73 -700 47z m500 -95 c146 -24 220 -43 345 -88 377
-135 715 -415 922 -763 67 -112 77 -133 129 -263 86 -213 125 -421 125 -662 1
-628 -321 -1200 -864 -1537 -420 -262 -966 -330 -1451 -183 -668 202 -1156
769 -1261 1463 -22 146 -20 388 5 537 62 383 233 716 506 989 274 275 587 437
979 506 142 25 412 26 565 1z"/>
<path d="M1945 3209 c-64 -20 -115 -89 -115 -156 l0 -43 -69 0 c-68 0 -70 -1
-75 -27 -3 -16 -15 -168 -27 -339 -25 -342 -24 -355 30 -387 16 -9 38 -17 50
-17 19 0 20 6 23 225 l3 225 33 32 32 33 148 3 c173 4 214 -5 242 -51 18 -29
20 -52 20 -249 0 -213 0 -218 20 -218 36 0 81 30 95 63 11 27 9 83 -13 370
l-26 337 -67 0 -66 0 -7 49 c-15 114 -122 184 -231 150z m108 -53 c40 -16 64
-51 73 -105 l7 -41 -128 0 -128 0 6 46 c10 90 87 135 170 100z"/>
<path d="M1836 2689 l-26 -20 0 -290 c0 -365 -13 -344 215 -338 183 6 170 -21
170 340 l0 291 -24 19 c-20 17 -40 19 -166 19 -129 0 -145 -2 -169 -21z m319
-314 l0 -230 -152 -3 -153 -3 0 236 0 236 153 -3 152 -3 0 -230z"/>
<path d="M1117 1643 c-13 -43 -23 -80 -21 -82 2 -2 17 2 35 8 18 6 56 11 85
11 l54 0 0 -212 c-1 -166 -4 -219 -15 -238 -27 -48 -23 -50 99 -50 l115 0 -15
35 c-11 26 -14 84 -14 250 l0 215 49 0 c26 0 62 -5 80 -11 18 -6 34 -9 36 -7
3 2 -7 39 -21 81 l-26 77 -209 0 -208 0 -24 -77z"/>
<path d="M1800 1715 c0 -3 7 -22 15 -42 21 -51 21 -506 0 -543 -29 -50 -29
-50 183 -50 l198 0 28 86 c15 47 26 88 23 90 -3 3 -23 -4 -46 -15 -31 -16 -59
-21 -121 -21 l-80 0 0 61 0 62 70 -5 70 -5 0 83 0 84 -26 -10 c-14 -6 -45 -10
-70 -10 l-44 0 0 50 0 50 71 0 c40 0 89 -5 110 -12 22 -6 41 -9 44 -6 3 2 -7
39 -21 81 l-26 77 -189 0 c-104 0 -189 -2 -189 -5z"/>
<path d="M2477 1682 l-37 -38 0 -95 0 -96 53 -50 c50 -47 57 -51 134 -63 94
-14 116 -30 111 -82 l-3 -33 -105 -3 c-59 -2 -122 2 -143 8 -22 6 -41 10 -43
7 -2 -2 8 -38 22 -80 l26 -77 171 0 171 0 43 42 43 42 0 106 0 106 -45 44
c-43 42 -52 46 -147 65 -108 21 -134 38 -112 73 9 13 28 18 95 20 46 2 103 -2
127 -9 23 -6 45 -10 47 -7 3 2 -7 39 -21 81 l-26 77 -162 0 -162 0 -37 -38z"/>
</g>
</svg>
